<?xml version="1.0" encoding="utf-8"?>
<!-- Generator: Adobe Illustrator 24.0.1, SVG Export Plug-In . SVG Version: 6.00 Build 0)  -->
<svg version="1.1" xmlns="http://www.w3.org/2000/svg" xmlns:xlink="http://www.w3.org/1999/xlink" x="0px" y="0px"
	 viewBox="0 0 600 300" style="enable-background:new 0 0 600 300;" xml:space="preserve">
<style type="text/css">
	.st0{display:none;}
	.st1{display:inline;}
	.st2{fill:#003049;}
	.st3{font-family:'Raleway-ExtraBold';}
	.st4{font-size:279.1156px;}
	.st5{font-family:'Raleway-Medium';}
	.st6{font-size:235.9088px;}
	.st7{fill:url(#SVGID_1_);}
	.st8{fill:url(#SVGID_2_);}
	.st9{fill:url(#SVGID_3_);}
	.st10{clip-path:url(#SVGID_5_);}
	.st11{fill:url(#SVGID_6_);}
	.st12{fill:url(#SVGID_7_);}
	.st13{clip-path:url(#SVGID_8_);}
	.st14{fill:url(#SVGID_9_);}
	.st15{display:inline;fill:url(#SVGID_10_);}
	.st16{clip-path:url(#SVGID_11_);}
	.st17{fill:none;}
	.st18{display:inline;fill:url(#SVGID_13_);}
	.st19{display:inline;fill:url(#SVGID_14_);}
	.st20{fill:#FF4500;}
	.st21{clip-path:url(#SVGID_16_);}
	.st22{fill:none;stroke:#000000;stroke-width:0;stroke-linecap:round;stroke-linejoin:round;}
	.st23{display:inline;fill:#1BA200;}
	.st24{display:inline;fill:none;stroke:#000000;stroke-width:0;stroke-linecap:round;stroke-linejoin:round;}
	.st25{fill:#FF9700;}
	.st26{fill:none;stroke:#000000;stroke-width:10;stroke-miterlimit:10;}
	.st27{display:inline;fill:#B600B9;}
	.st28{display:inline;fill:none;stroke:#23D000;stroke-miterlimit:10;}
	.st29{display:inline;fill:none;stroke:#00FF00;stroke-width:14;stroke-miterlimit:10;}
	.st30{display:inline;fill:#003049;}
	.st31{display:inline;fill:url(#SVGID_19_);}
	.st32{display:inline;fill:#FF4500;}
	.st33{display:inline;fill:#481300;}
	.st34{display:inline;fill:#FF9700;}
	.st35{display:inline;fill:url(#SVGID_21_);}
	.st36{display:inline;fill:url(#SVGID_22_);}
	.st37{display:inline;fill:url(#SVGID_23_);}
	.st38{display:inline;fill:none;stroke:#1799FF;stroke-width:14;stroke-miterlimit:10;}
	.st39{fill:url(#SVGID_24_);}
	.st40{fill:url(#SVGID_25_);}
	.st41{clip-path:url(#SVGID_27_);}
	.st42{fill:url(#SVGID_30_);}
	.st43{fill:url(#SVGID_31_);}
	.st44{clip-path:url(#SVGID_33_);}
	.st45{fill:url(#SVGID_34_);}
	.st46{fill:none;stroke:#1AE700;stroke-width:12;stroke-miterlimit:10;}
	.st47{fill:url(#SVGID_35_);}
	.st48{font-size:86.0224px;}
	.st49{font-size:69.7122px;}
</style>
<g id="artboard2" class="st0">
	<g class="st1">
		<text transform="matrix(1 0 0 1 250.0908 136.4277)" class="st2 st3 st4">The VFX</text>
		<text transform="matrix(1 0 0 1 255.876 348.3232)" class="st2 st5 st6">Company</text>
	</g>
	<g class="st1">
		<linearGradient id="SVGID_1_" gradientUnits="userSpaceOnUse" x1="-80.6084" y1="-272.0557" x2="-241.1103" y2="-117.5002">
			<stop  offset="9.866046e-02" style="stop-color:#FF4500"/>
			<stop  offset="0.2709" style="stop-color:#FF4500"/>
			<stop  offset="0.5419" style="stop-color:#F94300"/>
			<stop  offset="0.5905" style="stop-color:#F74300"/>
			<stop  offset="0.6225" style="stop-color:#EF4100"/>
			<stop  offset="0.6711" style="stop-color:#DA3B00"/>
			<stop  offset="0.7302" style="stop-color:#B83200"/>
			<stop  offset="0.7976" style="stop-color:#882500"/>
			<stop  offset="0.871" style="stop-color:#4C1400"/>
			<stop  offset="0.8757" style="stop-color:#481300"/>
		</linearGradient>
		<path class="st7" d="M-49.4-217.8c-0.4,37-30.5,66.9-67.5,66.9h-98v0.1l-38.7-67L-49.4-217.8L-49.4-217.8z"/>
		<linearGradient id="SVGID_2_" gradientUnits="userSpaceOnUse" x1="-344.0489" y1="75.1694" x2="-175.5109" y2="-69.4495">
			<stop  offset="9.866046e-02" style="stop-color:#FF4500"/>
			<stop  offset="0.4363" style="stop-color:#FD4500"/>
			<stop  offset="0.5506" style="stop-color:#F74300"/>
			<stop  offset="0.5928" style="stop-color:#F14100"/>
			<stop  offset="0.6512" style="stop-color:#DF3C00"/>
			<stop  offset="0.719" style="stop-color:#C23400"/>
			<stop  offset="0.7939" style="stop-color:#992900"/>
			<stop  offset="0.8737" style="stop-color:#651B00"/>
			<stop  offset="0.914" style="stop-color:#481300"/>
		</linearGradient>
		<path class="st8" d="M-215-1.8v154.9h0c-47.4,0-85.9-38.5-85.9-85.9v-217.7L-215-1.8z"/>
		<linearGradient id="SVGID_3_" gradientUnits="userSpaceOnUse" x1="-384.6114" y1="-223.0544" x2="-82.9059" y2="238.4334">
			<stop  offset="0" style="stop-color:#FF9700"/>
			<stop  offset="2.382563e-02" style="stop-color:#FF8A00"/>
			<stop  offset="8.794378e-02" style="stop-color:#FF6C00"/>
			<stop  offset="0.151" style="stop-color:#FF5600"/>
			<stop  offset="0.212" style="stop-color:#FF4900"/>
			<stop  offset="0.2685" style="stop-color:#FF4500"/>
			<stop  offset="0.4934" style="stop-color:#FD4500"/>
			<stop  offset="0.5696" style="stop-color:#F74300"/>
			<stop  offset="0.6038" style="stop-color:#F24200"/>
			<stop  offset="0.6461" style="stop-color:#E23D00"/>
			<stop  offset="0.6928" style="stop-color:#C93600"/>
			<stop  offset="0.7425" style="stop-color:#A62D00"/>
			<stop  offset="0.7941" style="stop-color:#7A2100"/>
			<stop  offset="0.8432" style="stop-color:#481300"/>
		</linearGradient>
		<path class="st9" d="M-89.4,66.7c-23.6,8.9-45.4,21.5-64.6,37.2L-215-1.8l-85.9-148.8v-0.4H-465v0c0.1-37,30.1-66.9,67-66.9h144.3
			l38.7,67L-89.4,66.7z"/>
		<g>
			<g>
				<defs>
					<path id="SVGID_4_" d="M151.1,455.8c-41.9,38.8-98.2,62.4-160,62c-128.4-0.9-231.3-104.6-231.3-233c0-73,33.6-138.2,86.2-181
						c19.2-15.6,41-28.3,64.6-37.2C-63.8,57-36.1,51.7-7.2,51.7c29,0,56.7,5.3,82.3,14.9L74.9,67L44,120.6
						c-16.2-5-33.4-7.8-51.2-7.8c-17.8,0-35,2.7-51.1,7.8c-24.3,7.6-46.3,20.4-64.6,37.1c-35.4,32.3-57.3,79.1-56.2,130.9
						c2,92.8,78.4,167.8,171.3,168.2c44.9,0.2,86-17,116.7-45.1c9.6-8.8,24.3-9.1,34.3-0.7l6.9,5.8
						C162.1,426.8,162.6,445.2,151.1,455.8z"/>
				</defs>
				<clipPath id="SVGID_5_">
					<use xlink:href="#SVGID_4_"  style="overflow:visible;"/>
				</clipPath>
				<g class="st10">
				</g>
			</g>
		</g>
		<linearGradient id="SVGID_6_" gradientUnits="userSpaceOnUse" x1="-86.9547" y1="101.1789" x2="144.3444" y2="157.0414">
			<stop  offset="0" style="stop-color:#FF4500"/>
			<stop  offset="0.1299" style="stop-color:#FB4400"/>
			<stop  offset="0.4383" style="stop-color:#F74300"/>
			<stop  offset="0.4771" style="stop-color:#EE4000"/>
			<stop  offset="0.5416" style="stop-color:#D43900"/>
			<stop  offset="0.6237" style="stop-color:#AB2E00"/>
			<stop  offset="0.7192" style="stop-color:#731F00"/>
			<stop  offset="0.7841" style="stop-color:#481300"/>
		</linearGradient>
		<path class="st11" d="M75.1,66.7L74.9,67L44,120.6c-16.2-5-33.4-7.8-51.2-7.8c-17.8,0-35,2.7-51.1,7.8
			c-24.3,7.6-46.3,20.4-64.6,37.1c-2.9,2.7-5.7,5.4-8.4,8.2l-31.5-54.5c2.9-2.6,5.8-5.1,8.8-7.6c19.2-15.6,41-28.3,64.6-37.2
			C-63.8,57-36.1,51.7-7.2,51.7C21.8,51.7,49.5,57,75.1,66.7z"/>
		<linearGradient id="SVGID_7_" gradientUnits="userSpaceOnUse" x1="165.9194" y1="157.0949" x2="96.3551" y2="113.7261">
			<stop  offset="0" style="stop-color:#FF4500"/>
			<stop  offset="0.1206" style="stop-color:#FB4400"/>
			<stop  offset="0.407" style="stop-color:#F74300"/>
			<stop  offset="0.4502" style="stop-color:#EF4100"/>
			<stop  offset="0.5181" style="stop-color:#D83B00"/>
			<stop  offset="0.602" style="stop-color:#B43100"/>
			<stop  offset="0.6981" style="stop-color:#822300"/>
			<stop  offset="0.7941" style="stop-color:#481300"/>
		</linearGradient>
		<path class="st12" d="M150.1,152.8l-6.9,5.8c-10,8.4-24.7,8.1-34.3-0.7l-0.2-0.2l30.9-53.5l0.2-0.4c3.9,3.2,7.7,6.5,11.4,9.9
			C162.6,124.4,162.1,142.7,150.1,152.8z"/>
		<g>
			<g>
				<defs>
					<path id="SVGID_12_" d="M249.6-86.4L139.7,103.9l-0.2,0.4l-30.9,53.5l-0.2,0.3l-33.3,57.6l-0.6,1l-0.1,0.2h0l-38.6,66.8
						l-14.5,25.1l-0.1,0.2l-0.2,0.3l-28.3,49l-43-74.5L-122.7,158l-0.2-0.4c18.4-16.7,40.3-29.6,64.6-37.1l0.2,0.3l51,88.3l51-88.3
						l0.2-0.3L74.9,67l0.2-0.3l45.4-78.6C147.1-58,196.3-86.4,249.6-86.4L249.6-86.4z"/>
				</defs>
				<clipPath id="SVGID_8_">
					<use xlink:href="#SVGID_12_"  style="overflow:visible;"/>
				</clipPath>
				<g class="st13">
				</g>
			</g>
		</g>
		<linearGradient id="SVGID_9_" gradientUnits="userSpaceOnUse" x1="26.4902" y1="335.6736" x2="-134.167" y2="74.3058">
			<stop  offset="0.2015" style="stop-color:#FF4500"/>
			<stop  offset="0.5109" style="stop-color:#FD4500"/>
			<stop  offset="0.6157" style="stop-color:#F74300"/>
			<stop  offset="0.6412" style="stop-color:#EF4100"/>
			<stop  offset="0.6803" style="stop-color:#DA3B00"/>
			<stop  offset="0.7283" style="stop-color:#B73100"/>
			<stop  offset="0.7832" style="stop-color:#862400"/>
			<stop  offset="0.8432" style="stop-color:#481300"/>
		</linearGradient>
		<path class="st14" d="M35.9,283.8l-14.5,25l-0.1,0.2l-0.2,0.3l-28.3,49l-43-74.5L-122.7,158l-0.2-0.4
			c18.4-16.7,40.3-29.6,64.6-37.1l0.2,0.3l51,88.3l0,0L35.9,283.8z"/>
	</g>
	<linearGradient id="SVGID_10_" gradientUnits="userSpaceOnUse" x1="1910.951" y1="85.1694" x2="2079.4893" y2="-59.4495">
		<stop  offset="9.866046e-02" style="stop-color:#FF4500"/>
		<stop  offset="0.4363" style="stop-color:#FD4500"/>
		<stop  offset="0.5506" style="stop-color:#F74300"/>
		<stop  offset="0.5928" style="stop-color:#F14100"/>
		<stop  offset="0.6512" style="stop-color:#DF3C00"/>
		<stop  offset="0.719" style="stop-color:#C23400"/>
		<stop  offset="0.7939" style="stop-color:#992900"/>
		<stop  offset="0.8737" style="stop-color:#651B00"/>
		<stop  offset="0.914" style="stop-color:#481300"/>
	</linearGradient>
	<path class="st15" d="M2040,8.2v154.9l0,0c-47.4,0-85.9-38.5-85.9-85.9v-217.7L2040,8.2z"/>
	<g class="st1">
		<g>
			<defs>
				<path id="SVGID_20_" d="M1893.1,586.8c-41.9,38.8-98.2,62.4-160,62c-128.4-0.9-231.3-104.6-231.3-233c0-73,33.6-138.2,86.2-181
					c19.2-15.6,41-28.3,64.6-37.2c25.6-9.6,53.3-14.9,82.2-14.9c29,0,56.7,5.3,82.3,14.9l-0.2,0.3l-30.9,53.5
					c-16.2-5-33.4-7.8-51.2-7.8c-17.8,0-35,2.7-51.1,7.8c-24.3,7.6-46.3,20.4-64.6,37.1c-35.4,32.3-57.3,79.1-56.2,130.9
					c2,92.8,78.4,167.8,171.3,168.2c44.9,0.2,86-17,116.7-45.1c9.6-8.8,24.3-9.1,34.3-0.7l6.9,5.8
					C1904.1,557.8,1904.6,576.2,1893.1,586.8z"/>
			</defs>
			<clipPath id="SVGID_11_">
				<use xlink:href="#SVGID_20_"  style="overflow:visible;"/>
			</clipPath>
			<g class="st16">
			</g>
		</g>
		<path class="st17" d="M1893.1,586.8c-41.9,38.8-98.2,62.4-160,62c-128.4-0.9-231.3-104.6-231.3-233c0-73,33.6-138.2,86.2-181
			c19.2-15.6,41-28.3,64.6-37.2c25.6-9.6,53.3-14.9,82.2-14.9c29,0,56.7,5.3,82.3,14.9l-0.2,0.3l-30.9,53.5
			c-16.2-5-33.4-7.8-51.2-7.8c-17.8,0-35,2.7-51.1,7.8c-24.3,7.6-46.3,20.4-64.6,37.1c-35.4,32.3-57.3,79.1-56.2,130.9
			c2,92.8,78.4,167.8,171.3,168.2c44.9,0.2,86-17,116.7-45.1c9.6-8.8,24.3-9.1,34.3-0.7l6.9,5.8
			C1904.1,557.8,1904.6,576.2,1893.1,586.8z"/>
	</g>
	<linearGradient id="SVGID_13_" gradientUnits="userSpaceOnUse" x1="1655.0454" y1="232.1789" x2="1886.3444" y2="288.0414">
		<stop  offset="0" style="stop-color:#FF4500"/>
		<stop  offset="0.1299" style="stop-color:#FB4400"/>
		<stop  offset="0.4383" style="stop-color:#F74300"/>
		<stop  offset="0.4771" style="stop-color:#EE4000"/>
		<stop  offset="0.5416" style="stop-color:#D43900"/>
		<stop  offset="0.6237" style="stop-color:#AB2E00"/>
		<stop  offset="0.7192" style="stop-color:#731F00"/>
		<stop  offset="0.7841" style="stop-color:#481300"/>
	</linearGradient>
	<path class="st18" d="M1817.1,197.7l-0.2,0.3l-30.9,53.5c-16.2-5-33.4-7.8-51.2-7.8c-17.8,0-35,2.7-51.1,7.8
		c-24.3,7.6-46.3,20.4-64.6,37.1c-2.9,2.7-5.7,5.4-8.4,8.2l-31.5-54.5c2.9-2.6,5.8-5.1,8.8-7.6c19.2-15.6,41-28.3,64.6-37.2
		c25.6-9.6,53.3-14.9,82.2-14.9C1763.8,182.7,1791.5,188,1817.1,197.7z"/>
	<linearGradient id="SVGID_14_" gradientUnits="userSpaceOnUse" x1="1907.9194" y1="288.0949" x2="1838.3551" y2="244.7261">
		<stop  offset="0" style="stop-color:#FF4500"/>
		<stop  offset="0.1206" style="stop-color:#FB4400"/>
		<stop  offset="0.407" style="stop-color:#F74300"/>
		<stop  offset="0.4502" style="stop-color:#EF4100"/>
		<stop  offset="0.5181" style="stop-color:#D83B00"/>
		<stop  offset="0.602" style="stop-color:#B43100"/>
		<stop  offset="0.6981" style="stop-color:#822300"/>
		<stop  offset="0.7941" style="stop-color:#481300"/>
	</linearGradient>
	<path class="st19" d="M1892.1,283.8l-6.9,5.8c-10,8.4-24.7,8.1-34.3-0.7l-0.2-0.2l30.9-53.5l0.2-0.4c3.9,3.2,7.7,6.5,11.4,9.9
		C1904.6,255.4,1904.1,273.7,1892.1,283.8z"/>
	<g class="st1">
		<path class="st20" d="M2442.4-205"/>
		<path class="st20" d="M2455.7-228.3l-24.7-9.3c-22.6-8.6-46.5-12.9-70.9-12.9c-24.4,0-48.3,4.3-70.9,12.9
			c-20.2,7.6-38.9,18.4-55.7,32c-1.3,1-2.6,2.2-4,3.3c-0.5,0.5-1.1,0.9-1.6,1.4l-0.4,0.4l-0.4,0.4c-0.4,0.3-0.8,0.7-1.2,1
			l-13.8,12.4l0.4,0.7c-14.5,15.7-26.4,33.5-35.3,53.1c-11.9,26.2-18,54.2-18,83.2c0,53.5,20.7,103.8,58.2,141.6
			c37.5,37.8,87.7,58.9,141.2,59.2c0.5,0,1,0,1.5,0c50.8,0,99.2-19,136.4-53.4c8.9-8.3,13.9-20,13.6-32.1
			c-0.3-12.2-5.8-23.7-15.2-31.6l-5.3-4.4c-7.7-6.4-17.4-10-27.3-10c-10.6,0-20.8,3.9-28.6,11.1c-20.2,18.5-46.3,28.6-73.6,28.6
			l-0.4,0C2301,59.3,2252.2,11.4,2251-47.2c-0.6-29.1,10.1-56.7,30.3-77.8c0.7-0.7,1.5-1.5,2.4-2.4l0.3-0.2l0.2-0.2
			c1-1,1.8-1.7,2.6-2.4c11.8-10.7,25.9-18.9,41-23.6c10.5-3.3,21.4-4.9,32.4-4.9c11.1,0,22,1.7,32.5,4.9l17.2,5.4"/>
		<path class="st20" d="M2420.1-142.4l13.4,12.2l0.2,0.1c7.8,7.1,18,11.1,28.6,11.1c10,0,19.7-3.5,27.3-9.9l5.3-4.4
			c9.4-7.8,14.9-19.3,15.2-31.5c0.3-12.2-4.7-23.9-13.6-32.2c-3.2-2.9-6.4-5.8-9.8-8.5l-20.5-16.7"/>
	</g>
	<g class="st1">
		<g>
			<defs>
				<rect id="SVGID_15_" x="2484.1" y="-128.4" width="382.5" height="454.6"/>
			</defs>
			<clipPath id="SVGID_16_">
				<use xlink:href="#SVGID_15_"  style="overflow:visible;"/>
			</clipPath>
			<g class="st21">
				<defs>
					<rect id="SVGID_17_" x="2484.1" y="-128.4" width="382.5" height="454.6"/>
				</defs>
				<clipPath id="SVGID_18_">
					<use xlink:href="#SVGID_17_"  style="overflow:visible;"/>
				</clipPath>
				<g style="clip-path:url(#SVGID_18_);">
					
						<image style="overflow:visible;" width="798" height="948" xlink:href="CAACCAD4.jpg"  transform="matrix(0.48 0 0 0.48 2484 -128.58)">
					</image>
				</g>
			</g>
		</g>
	</g>
	<g class="st1">
		<path d="M3085.1,482l-123.8-214.5h86.8c40.4,0,73.6-32.9,74-73.3l0.1-6.6h-207h-15H2767c-40.5,0-73.4,32.9-73.5,73.4l0,6.5h166.7
			l149,258.1l5.9-4.8c18.9-15.4,40.1-27.5,62.8-36.1L3085.1,482z"/>
		<path d="M3414.6,319.1c-55.4,0-107,29.8-134.7,77.8l-122,211.3l-45.3-78.5l-0.1-0.1l-2.7-4.7l0,0v0l-5,1.5
			c-24.6,7.7-47.8,21-67.1,38.5l-2.5,2.3l-1.4,1.3l0,0l0,0l27.8,48.1l96.2,166.7l0,0l0,0l268-464.1H3414.6z M3072.6,555
			c-0.4,0.2-0.7,0.5-1.1,0.7C3071.9,555.5,3072.2,555.2,3072.6,555z"/>
		<path class="st22" d="M3072.6,555c-0.4,0.2-0.7,0.5-1.1,0.7"/>
	</g>
	<path class="st23" d="M2157.1,33l-123.8-214.5h86.8c40.4,0,73.6-32.9,74-73.3l0.1-6.6h-207h-15H1839c-40.5,0-73.4,32.9-73.5,73.4
		l0,6.5h166.7l149,258.1l5.9-4.8c18.9-15.4,40.1-27.5,62.8-36.1L2157.1,33z"/>
	<path class="st24" d="M2921.6,97c-0.4,0.2-0.7,0.5-1.1,0.7"/>
	<g class="st1">
		<g>
			<g>
				<path class="st25" d="M2350-245.9c-47.5,0-91.7,25.5-115.4,66.6l-104.5,181l-38.8-67.3l-0.1-0.1l-2.3-4l0,0l-4.3,1.3
					c-21.1,6.6-41,18-57.5,33l-2.1,2l-1.2,1.1v0v0l23.8,41.2l82.5,142.8l0,0l0,0l229.6-397.7H2350z"/>
			</g>
		</g>
		<g>
			<g>
				<path class="st25" d="M2130.1,168.9L2012.9-34l8.4-7.7c17.4-15.9,38.4-27.9,60.7-34.9l4.6-1.4l6.4-1.8l5.6,9.9l31.4,54.4
					l97.1-168.1c25.3-43.8,72.3-70.9,122.9-70.9h24.5L2130.1,168.9z M2034.7-30.6l95.4,165.2l214.6-371.8
					c-42.4,1.8-81.4,25.3-102.7,62.2L2130.1,18.9l-45.2-78.3C2066.5-53.3,2049.3-43.4,2034.7-30.6z"/>
			</g>
		</g>
	</g>
	<g>
		<text transform="matrix(1 0 0 1 2138.0908 136.4277)" class="st30 st3 st4">The VFX</text>
		<text transform="matrix(1 0 0 1 2143.876 348.3232)" class="st30 st5 st6">Company</text>
	</g>
	<g class="st1">
		<rect x="1416" y="-394.5" class="st26" width="386" height="181.7"/>
		<rect x="1802" y="-394.5" class="st26" width="386" height="181.7"/>
		<rect x="2188" y="-394.5" class="st26" width="386" height="181.7"/>
		<rect x="2574" y="-394.5" class="st26" width="386" height="181.7"/>
		<rect x="2960" y="-394.5" class="st26" width="386" height="181.7"/>
		<rect x="1416" y="-212.8" class="st26" width="386" height="181.7"/>
		<rect x="1802" y="-212.8" class="st26" width="386" height="181.7"/>
		<rect x="2188" y="-212.8" class="st26" width="386" height="181.7"/>
		<rect x="2574" y="-212.8" class="st26" width="386" height="181.7"/>
		<rect x="2960" y="-212.8" class="st26" width="386" height="181.7"/>
		<rect x="1416" y="-31.2" class="st26" width="386" height="181.7"/>
		<rect x="1802" y="-31.2" class="st26" width="386" height="181.7"/>
		<rect x="2188" y="-31.2" class="st26" width="386" height="181.7"/>
		<rect x="2574" y="-31.2" class="st26" width="386" height="181.7"/>
		<rect x="2960" y="-31.2" class="st26" width="386" height="181.7"/>
		<rect x="1416" y="150.5" class="st26" width="386" height="181.7"/>
		<rect x="1802" y="150.5" class="st26" width="386" height="181.7"/>
		<rect x="2188" y="150.5" class="st26" width="386" height="181.7"/>
		<rect x="2574" y="150.5" class="st26" width="386" height="181.7"/>
		<rect x="2960" y="150.5" class="st26" width="386" height="181.7"/>
		<rect x="1416" y="332.2" class="st26" width="386" height="181.7"/>
		<rect x="1802" y="332.2" class="st26" width="386" height="181.7"/>
		<rect x="2188" y="332.2" class="st26" width="386" height="181.7"/>
		<rect x="2574" y="332.2" class="st26" width="386" height="181.7"/>
		<rect x="2960" y="332.2" class="st26" width="386" height="181.7"/>
		<rect x="1416" y="513.8" class="st26" width="386" height="181.7"/>
		<rect x="1802" y="513.8" class="st26" width="386" height="181.7"/>
		<rect x="2188" y="513.8" class="st26" width="386" height="181.7"/>
		<rect x="2574" y="513.8" class="st26" width="386" height="181.7"/>
		<rect x="2960" y="513.8" class="st26" width="386" height="181.7"/>
	</g>
	
		<rect x="3111" y="83.5" transform="matrix(0.4933 -0.8699 0.8699 0.4933 1471.3839 2778.9348)" class="st27" width="20" height="86"/>
	
		<rect x="2399" y="-45.5" transform="matrix(0.8783 -0.478 0.478 0.8783 314.0552 1163.0305)" class="st27" width="86" height="20"/>
	<line class="st28" x1="2954.5" y1="306" x2="3055.5" y2="479"/>
	<line class="st28" x1="3170.1" y1="307.8" x2="3069.9" y2="481.2"/>
	<line class="st29" x1="4229" y1="291.5" x2="4298" y2="291.5"/>
</g>
<g id="Swatches" class="st0">
	<circle class="st30" cx="-698.5" cy="-254" r="80.5"/>
	
		<linearGradient id="SVGID_19_" gradientUnits="userSpaceOnUse" x1="2013" y1="1120" x2="2174" y2="1120" gradientTransform="matrix(0 1 -1 0 422.5 -1562.5)">
		<stop  offset="0" style="stop-color:#FF4500"/>
		<stop  offset="1" style="stop-color:#481300"/>
	</linearGradient>
	<circle class="st31" cx="-697.5" cy="531" r="80.5"/>
	<circle class="st32" cx="-698.5" cy="-59" r="80.5"/>
	<circle class="st33" cx="-698.5" cy="124" r="80.5"/>
	<circle class="st34" cx="-698.5" cy="317" r="80.5"/>
	<circle class="st30" cx="3486.5" cy="-302" r="80.5"/>
	
		<linearGradient id="SVGID_21_" gradientUnits="userSpaceOnUse" x1="1965" y1="-3065" x2="2126" y2="-3065" gradientTransform="matrix(0 1 -1 0 422.5 -1562.5)">
		<stop  offset="0" style="stop-color:#FF4500"/>
		<stop  offset="1" style="stop-color:#481300"/>
	</linearGradient>
	<circle class="st35" cx="3487.5" cy="483" r="80.5"/>
	<circle class="st32" cx="3486.5" cy="-107" r="80.5"/>
	<circle class="st33" cx="3486.5" cy="76" r="80.5"/>
	<circle class="st34" cx="3486.5" cy="269" r="80.5"/>
	<circle class="st30" cx="1925.5" cy="-510" r="80.5"/>
	
		<linearGradient id="SVGID_22_" gradientUnits="userSpaceOnUse" x1="1467" y1="-2035" x2="1628" y2="-2035" gradientTransform="matrix(1 0 0 1 1163 1524)">
		<stop  offset="0" style="stop-color:#FF4500"/>
		<stop  offset="1" style="stop-color:#481300"/>
	</linearGradient>
	<circle class="st36" cx="2710.5" cy="-511" r="80.5"/>
	<circle class="st32" cx="2120.5" cy="-510" r="80.5"/>
	<circle class="st33" cx="2303.5" cy="-510" r="80.5"/>
	<circle class="st34" cx="2496.5" cy="-510" r="80.5"/>
	<circle class="st30" cx="1925.5" cy="826" r="80.5"/>
	
		<linearGradient id="SVGID_23_" gradientUnits="userSpaceOnUse" x1="1467" y1="-699" x2="1628" y2="-699" gradientTransform="matrix(1 0 0 1 1163 1524)">
		<stop  offset="0" style="stop-color:#FF4500"/>
		<stop  offset="1" style="stop-color:#481300"/>
	</linearGradient>
	<circle class="st37" cx="2710.5" cy="825" r="80.5"/>
	<circle class="st32" cx="2120.5" cy="826" r="80.5"/>
	<circle class="st33" cx="2303.5" cy="826" r="80.5"/>
	<circle class="st34" cx="2496.5" cy="826" r="80.5"/>
</g>
<g id="Layer_3">
	<g class="st0">
		<line class="st29" x1="3951.3" y1="-13.8" x2="4020.3" y2="-13.8"/>
		<line class="st29" x1="4233.3" y1="-7.8" x2="4233.3" y2="61.2"/>
		<line class="st38" x1="4394.6" y1="52.9" x2="4360.1" y2="112.6"/>
		<line class="st29" x1="4045" y1="-37.5" x2="4104.7" y2="-72"/>
		<line class="st29" x1="4090.8" y1="-205.3" x2="4090.8" y2="-274.3"/>
	</g>
	<g class="st0">
		<text transform="matrix(1 0 0 1 4143 50.8243)" class="st30 st3 st4">The VFX</text>
		<text transform="matrix(1 0 0 1 4148.7852 262.7198)" class="st30 st5 st6">Company</text>
	</g>
	<g>
		<g>
			<linearGradient id="SVGID_24_" gradientUnits="userSpaceOnUse" x1="124.115" y1="32.7459" x2="79.891" y2="75.3314">
				<stop  offset="9.866046e-02" style="stop-color:#FF4500"/>
				<stop  offset="0.2709" style="stop-color:#FF4500"/>
				<stop  offset="0.5419" style="stop-color:#F94300"/>
				<stop  offset="0.5905" style="stop-color:#F74300"/>
				<stop  offset="0.6225" style="stop-color:#EF4100"/>
				<stop  offset="0.6711" style="stop-color:#DA3B00"/>
				<stop  offset="0.7302" style="stop-color:#B83200"/>
				<stop  offset="0.7976" style="stop-color:#882500"/>
				<stop  offset="0.871" style="stop-color:#4C1400"/>
				<stop  offset="0.8757" style="stop-color:#481300"/>
			</linearGradient>
			<path class="st39" d="M132.7,47.7c-0.1,10.2-8.4,18.4-18.6,18.4h-27v0L76.4,47.7L132.7,47.7L132.7,47.7z"/>
			<linearGradient id="SVGID_25_" gradientUnits="userSpaceOnUse" x1="40.3514" y1="46.2475" x2="123.4819" y2="173.4038">
				<stop  offset="0" style="stop-color:#FF9700"/>
				<stop  offset="7.710775e-02" style="stop-color:#FF7400"/>
				<stop  offset="0.1503" style="stop-color:#FF5A00"/>
				<stop  offset="0.2162" style="stop-color:#FF4A00"/>
				<stop  offset="0.2685" style="stop-color:#FF4500"/>
				<stop  offset="0.4934" style="stop-color:#FD4500"/>
				<stop  offset="0.5696" style="stop-color:#F74300"/>
				<stop  offset="0.6038" style="stop-color:#F24200"/>
				<stop  offset="0.6461" style="stop-color:#E23D00"/>
				<stop  offset="0.6928" style="stop-color:#C93600"/>
				<stop  offset="0.7425" style="stop-color:#A62D00"/>
				<stop  offset="0.7941" style="stop-color:#7A2100"/>
				<stop  offset="0.8432" style="stop-color:#481300"/>
			</linearGradient>
			<path class="st40" d="M121.7,126.1c-6.5,2.5-10.8,5.9-16.1,10.2l-16.8-29.1l-23.7-41l-1.7-0.1H18.2v0c0-10.2,8.3-18.4,18.5-18.4
				h39.8l10.7,18.5L121.7,126.1z"/>
			<g>
				<g>
					<defs>
						<rect id="SVGID_26_" x="78.8" y="120.6" width="112.9" height="131.2"/>
					</defs>
					<clipPath id="SVGID_27_">
						<use xlink:href="#SVGID_26_"  style="overflow:visible;"/>
					</clipPath>
					<g class="st41">
						<defs>
							<rect id="SVGID_28_" x="78.8" y="120.6" width="112.9" height="131.2"/>
						</defs>
						<clipPath id="SVGID_29_">
							<use xlink:href="#SVGID_28_"  style="overflow:visible;"/>
						</clipPath>
						<g style="clip-path:url(#SVGID_29_);">
							
								<image style="overflow:visible;" width="236" height="274" xlink:href="CAACCADC.jpg"  transform="matrix(0.48 0 0 0.48 78.72 120.54)">
							</image>
						</g>
					</g>
				</g>
			</g>
			<path class="st17" d="M188.6,221.5l-1.9-1.6c-1.5-1.3-3.5-2-5.5-2c-2.1,0-4.2,0.8-5.8,2.2c-8.5,7.8-19.5,12.1-31,12.1l-0.2,0
				c-24.7-0.1-45.3-20.3-45.8-45c-0.3-13.3,5.2-26,15-35c5-4.5,10.9-8,17.3-9.9c4.4-1.4,9-2.1,13.7-2.1c4.7,0,9.3,0.7,13.7,2.1
				l1.1,0.3l0.6-1l8.5-14.8l0.1-0.1l0.8-1.4l-1.5-0.6c-7.4-2.8-15.2-4.2-23.2-4.2c-8,0-15.8,1.4-23.1,4.2c-6.6,2.5-12.7,6-18.2,10.5
				c-15.4,12.5-24.3,31.1-24.3,50.9c0,8.8,1.7,17.4,5.1,25.5c3.3,7.8,7.9,14.8,13.9,20.8c6,6,12.9,10.7,20.7,14.1
				c8,3.4,16.6,5.2,25.4,5.3c0.2,0,0.3,0,0.5,0c16.6,0,32.4-6.2,44.5-17.4c1.8-1.7,2.8-4,2.7-6.5
				C191.6,225.4,190.4,223.1,188.6,221.5z M181.4,219.3c-0.1,0-0.2,0-0.3,0c0,0,0,0,0.1,0C181.2,219.3,181.3,219.3,181.4,219.3z
				 M185.8,220.9c-0.2-0.1-0.3-0.3-0.5-0.4C185.4,220.7,185.6,220.8,185.8,220.9z M185.1,220.4c-0.1-0.1-0.2-0.2-0.4-0.2
				C184.8,220.3,184.9,220.3,185.1,220.4z M184.5,220.1c-0.1-0.1-0.2-0.1-0.4-0.2C184.2,220,184.4,220,184.5,220.1z M183.9,219.8
				c-0.1,0-0.2-0.1-0.3-0.1C183.7,219.7,183.8,219.8,183.9,219.8z M183.3,219.6c-0.1,0-0.2-0.1-0.3-0.1
				C183.1,219.5,183.2,219.5,183.3,219.6z M182.7,219.4c-0.1,0-0.2-0.1-0.3-0.1C182.4,219.4,182.5,219.4,182.7,219.4z M182,219.3
				c-0.1,0-0.2,0-0.3,0C181.8,219.3,181.9,219.3,182,219.3z M176.3,221.1C176.3,221.1,176.3,221.1,176.3,221.1
				c-0.1,0.1-0.2,0.2-0.4,0.3C176.1,221.3,176.2,221.2,176.3,221.1C176.3,221.1,176.3,221.1,176.3,221.1z M180.7,219.3
				c-0.1,0-0.2,0-0.3,0C180.5,219.3,180.6,219.3,180.7,219.3z M180.1,219.3c-0.1,0-0.2,0-0.3,0C179.9,219.4,180,219.4,180.1,219.3z
				 M179.5,219.5c-0.1,0-0.2,0-0.3,0.1C179.3,219.5,179.4,219.5,179.5,219.5z M178.8,219.6c-0.1,0-0.2,0.1-0.3,0.1
				C178.7,219.7,178.7,219.7,178.8,219.6z M178.2,219.9c-0.1,0-0.2,0.1-0.2,0.1C178,220,178.1,219.9,178.2,219.9z M177.6,220.2
				c-0.1,0-0.1,0.1-0.2,0.1C177.5,220.3,177.5,220.2,177.6,220.2z M177,220.6c-0.1,0-0.1,0.1-0.2,0.1
				C176.9,220.6,177,220.6,177,220.6z M186.6,234.5c-0.3,0.2-0.6,0.5-0.8,0.7C186,235,186.3,234.8,186.6,234.5z M185.3,235.6
				c-0.2,0.2-0.5,0.4-0.7,0.6C184.9,236,185.1,235.8,185.3,235.6z M184.1,236.6c-0.2,0.2-0.4,0.4-0.7,0.5
				C183.7,236.9,183.9,236.7,184.1,236.6z M182.9,237.5c-0.2,0.2-0.4,0.3-0.6,0.5C182.5,237.8,182.7,237.7,182.9,237.5z
				 M181.7,238.4c-0.2,0.2-0.4,0.3-0.6,0.5C181.3,238.7,181.5,238.5,181.7,238.4z M180.5,239.2c-0.2,0.1-0.4,0.3-0.6,0.4
				C180.1,239.5,180.3,239.4,180.5,239.2z M179.3,240.1c-0.2,0.1-0.4,0.3-0.6,0.4C178.8,240.3,179.1,240.2,179.3,240.1z M178,240.9
				c-0.2,0.1-0.4,0.3-0.6,0.4C177.6,241.1,177.8,241,178,240.9z M176.7,241.6c-0.2,0.1-0.4,0.2-0.6,0.4
				C176.3,241.9,176.5,241.8,176.7,241.6z M175.5,221.8c-0.1,0.1-0.2,0.2-0.4,0.3C175.3,222,175.4,221.9,175.5,221.8z M174.7,222.5
				c-0.1,0.1-0.3,0.2-0.4,0.3C174.5,222.7,174.6,222.6,174.7,222.5z M173.9,223.2c-0.1,0.1-0.3,0.2-0.4,0.3
				C173.6,223.4,173.7,223.3,173.9,223.2z M173,223.9c-0.1,0.1-0.3,0.2-0.4,0.3C172.8,224.1,172.9,224,173,223.9z M172.2,224.5
				c-0.1,0.1-0.3,0.2-0.4,0.3C171.9,224.7,172,224.6,172.2,224.5z M171.3,225.1c-0.1,0.1-0.3,0.2-0.4,0.3
				C171,225.3,171.2,225.2,171.3,225.1z M170.4,225.8c-0.1,0.1-0.3,0.2-0.4,0.3C170.1,225.9,170.3,225.8,170.4,225.8z M169.5,226.3
				c-0.1,0.1-0.3,0.2-0.4,0.2C169.2,226.5,169.3,226.4,169.5,226.3z M168.6,226.9c-0.1,0.1-0.3,0.2-0.4,0.2
				C168.3,227.1,168.4,227,168.6,226.9z M167.6,227.4c-0.1,0.1-0.3,0.2-0.4,0.2C167.3,227.6,167.5,227.5,167.6,227.4z M166.7,228
				c-0.1,0.1-0.3,0.2-0.4,0.2C166.4,228.1,166.5,228,166.7,228z M165.7,228.5c-0.1,0.1-0.3,0.1-0.4,0.2
				C165.4,228.6,165.6,228.5,165.7,228.5z M164.7,228.9c-0.1,0.1-0.3,0.1-0.5,0.2C164.4,229.1,164.6,229,164.7,228.9z M163.8,229.4
				c-0.2,0.1-0.3,0.1-0.5,0.2C163.5,229.5,163.6,229.5,163.8,229.4z M162.8,229.8c-0.2,0.1-0.3,0.1-0.5,0.2
				C162.4,230,162.6,229.9,162.8,229.8z M161.7,230.3c-0.2,0.1-0.3,0.1-0.5,0.2C161.4,230.4,161.6,230.3,161.7,230.3z M160.7,230.6
				c-0.2,0.1-0.3,0.1-0.5,0.2C160.4,230.8,160.6,230.7,160.7,230.6z M159.7,231c-0.2,0.1-0.3,0.1-0.5,0.2
				C159.4,231.1,159.5,231.1,159.7,231z M158.7,231.4c-0.2,0.1-0.3,0.1-0.5,0.2C158.3,231.5,158.5,231.4,158.7,231.4z M157.6,231.7
				c-0.2,0-0.3,0.1-0.5,0.1C157.3,231.8,157.4,231.7,157.6,231.7z M156.5,232c-0.2,0-0.3,0.1-0.5,0.1
				C156.2,232.1,156.4,232,156.5,232z M155.5,232.2c-0.2,0-0.3,0.1-0.5,0.1C155.1,232.3,155.3,232.3,155.5,232.2z M154.4,232.5
				c-0.2,0-0.4,0.1-0.5,0.1C154,232.6,154.2,232.5,154.4,232.5z M153.3,232.7c-0.2,0-0.4,0.1-0.5,0.1
				C152.9,232.8,153.1,232.7,153.3,232.7z M152.2,232.9c-0.2,0-0.4,0.1-0.5,0.1C151.8,233,152,232.9,152.2,232.9z M151.1,233.1
				c-0.2,0-0.4,0-0.5,0.1C150.7,233.1,150.9,233.1,151.1,233.1z M150,233.2c-0.2,0-0.4,0-0.5,0.1C149.6,233.3,149.8,233.3,150,233.2
				z M148.8,233.3c-0.2,0-0.4,0-0.6,0C148.5,233.4,148.6,233.4,148.8,233.3z M147.7,233.4c-0.2,0-0.4,0-0.6,0
				C147.3,233.5,147.5,233.5,147.7,233.4z M146.6,233.5c-0.2,0-0.4,0-0.6,0C146.2,233.5,146.4,233.5,146.6,233.5z M145.4,233.5
				c-0.2,0-0.4,0-0.6,0C145,233.6,145.2,233.6,145.4,233.5z M113.7,222.2c-0.6-0.5-1.1-1-1.7-1.5
				C112.5,221.2,113.1,221.7,113.7,222.2z M138.4,233.2c-0.1,0-0.2,0-0.3,0C138.2,233.2,138.3,233.2,138.4,233.2z M133.9,232.4
				c-0.6-0.1-1.1-0.3-1.7-0.4C132.8,232.1,133.4,232.3,133.9,232.4z M128.6,230.8c-1.7-0.6-3.4-1.3-5.1-2.1
				C125.1,229.5,126.8,230.2,128.6,230.8z M122.5,228.2c-1-0.5-2.1-1.1-3.1-1.8C120.4,227.1,121.5,227.6,122.5,228.2z M118.7,226
				c-1.4-0.9-2.7-1.9-4-2.9C116,224.1,117.3,225.1,118.7,226z M98.6,174c-0.1,0.2-0.1,0.4-0.2,0.6C98.4,174.4,98.5,174.2,98.6,174z
				 M98,176.5c0,0.2-0.1,0.3-0.1,0.5C97.9,176.9,97.9,176.7,98,176.5z M99.4,171.1c0.3-0.9,0.7-1.9,1-2.8
				C100.1,169.2,99.7,170.1,99.4,171.1z M134.5,139.8c-0.6,0.1-1.2,0.3-1.7,0.4c-0.9,0.2-1.7,0.5-2.5,0.7c-1.7,0.5-3.3,1.1-4.9,1.8
				s-3.1,1.5-4.6,2.3c-0.7,0.4-1.5,0.9-2.2,1.3c-2.2,1.4-4.2,3-6.1,4.7c-4.6,4.2-8.3,9.2-11,14.9c2.7-5.7,6.4-10.7,11-14.9
				c1.9-1.7,3.9-3.3,6.1-4.7c0.7-0.5,1.5-0.9,2.2-1.3c1.5-0.9,3-1.6,4.6-2.3c1.6-0.7,3.2-1.3,4.9-1.8c0.8-0.3,1.7-0.5,2.5-0.7
				C133.4,140.1,133.9,139.9,134.5,139.8c0.6-0.1,1.2-0.2,1.7-0.3C135.7,139.6,135.1,139.7,134.5,139.8z M109.4,132.3
				c2.4-1.5,4.8-2.9,7.4-4.1C114.3,129.4,111.8,130.7,109.4,132.3z M117.1,128c0.6-0.3,1.2-0.6,1.8-0.8
				C118.3,127.5,117.7,127.7,117.1,128z M144.4,138.8L144.4,138.8c-2.1,0-4.3,0.1-6.3,0.4C140.1,138.9,142.2,138.8,144.4,138.8z
				 M147.1,138.9c2.7,0.2,5.3,0.5,7.8,1.1C152.3,139.4,149.8,139,147.1,138.9z M167,126.1L167,126.1l-8.6,14.8v0L167,126.1
				L167,126.1c-7-2.7-14.7-4.1-22.7-4.1l0,0C152.3,122,160,123.4,167,126.1z M129.9,123.6c-0.9,0.2-1.9,0.5-2.8,0.7
				c-1.2,0.3-2.4,0.7-3.6,1.1c1.2-0.4,2.4-0.8,3.6-1.1C128,124.1,128.9,123.8,129.9,123.6z M101,233.6c-1.5-1.4-2.9-2.8-4.3-4.3
				c-10.3-11.4-16.5-26.5-16.5-43.1c0-3.8,0.3-7.5,1-11.1c0.2-1.2,0.4-2.4,0.7-3.6c-0.3,1.2-0.5,2.4-0.7,3.6c-0.6,3.6-1,7.3-1,11.1
				c0,16.6,6.2,31.7,16.5,43.1C98,230.7,99.4,232.2,101,233.6c1.9,1.7,3.9,3.3,6,4.8c2.7,1.9,5.6,3.7,8.6,5.2
				c-3-1.5-5.9-3.2-8.6-5.2C104.8,236.9,102.8,235.3,101,233.6z M116.8,244.2c0.7,0.3,1.4,0.7,2.2,1c2.3,1,4.6,1.8,7,2.5
				c-2.4-0.7-4.7-1.6-7-2.5C118.3,244.9,117.5,244.6,116.8,244.2z M128.3,248.4c0.9,0.2,1.8,0.4,2.7,0.6
				C130.1,248.8,129.2,248.6,128.3,248.4z M143.9,250.4c0.3,0,0.7,0,1,0c-0.2,0-0.4,0-0.6,0C144.2,250.4,144,250.4,143.9,250.4z
				 M175.4,242.4c-0.2,0.1-0.4,0.2-0.6,0.3C175,242.6,175.2,242.5,175.4,242.4z M174.1,243.1c-0.2,0.1-0.4,0.2-0.6,0.3
				C173.7,243.3,173.9,243.2,174.1,243.1z M172.8,243.7c-0.2,0.1-0.4,0.2-0.6,0.3C172.4,244,172.6,243.9,172.8,243.7z M171.5,244.4
				c-0.2,0.1-0.4,0.2-0.6,0.3C171,244.6,171.2,244.5,171.5,244.4z M170.1,245c-0.2,0.1-0.4,0.2-0.6,0.3
				C169.7,245.2,169.9,245.1,170.1,245z M168.7,245.6c-0.2,0.1-0.4,0.2-0.6,0.3C168.3,245.8,168.5,245.7,168.7,245.6z M167.3,246.1
				c-0.2,0.1-0.4,0.2-0.7,0.3C166.9,246.3,167.1,246.2,167.3,246.1z M165.9,246.7c-0.2,0.1-0.4,0.2-0.7,0.2
				C165.5,246.8,165.7,246.7,165.9,246.7z M164.5,247.1c-0.2,0.1-0.5,0.2-0.7,0.2C164.1,247.3,164.3,247.2,164.5,247.1z
				 M163.1,247.6c-0.2,0.1-0.5,0.1-0.7,0.2C162.6,247.7,162.9,247.7,163.1,247.6z M161.6,248c-0.2,0.1-0.5,0.1-0.7,0.2
				C161.2,248.2,161.4,248.1,161.6,248z M160.2,248.4c-0.2,0.1-0.5,0.1-0.7,0.2C159.7,248.5,160,248.5,160.2,248.4z M158.7,248.8
				c-0.2,0.1-0.5,0.1-0.7,0.2C158.2,248.9,158.5,248.8,158.7,248.8z M157.2,249.1c-0.2,0-0.5,0.1-0.7,0.1
				C156.7,249.2,157,249.1,157.2,249.1z M155.7,249.4c-0.2,0-0.5,0.1-0.7,0.1C155.2,249.5,155.5,249.4,155.7,249.4z M154.2,249.6
				c-0.3,0-0.5,0.1-0.8,0.1C153.7,249.7,154,249.7,154.2,249.6z M152.7,249.8c-0.3,0-0.5,0.1-0.8,0.1
				C152.2,249.9,152.4,249.9,152.7,249.8z M151.2,250c-0.3,0-0.5,0.1-0.8,0.1C150.6,250.1,150.9,250,151.2,250z M149.6,250.2
				c-0.3,0-0.5,0-0.8,0.1C149.1,250.2,149.4,250.2,149.6,250.2z M148.1,250.3c-0.3,0-0.5,0-0.8,0
				C147.5,250.3,147.8,250.3,148.1,250.3z M146.5,250.3c-0.3,0-0.5,0-0.8,0C146,250.4,146.2,250.4,146.5,250.3z M188,233.3
				c-0.4,0.3-0.7,0.7-1.1,1C187.2,234,187.6,233.6,188,233.3c1.2-1.1,1.9-2.5,2.2-4C189.9,230.8,189.2,232.2,188,233.3z"/>
			<linearGradient id="SVGID_30_" gradientUnits="userSpaceOnUse" x1="121.6552" y1="135.8779" x2="189.0946" y2="152.1656">
				<stop  offset="0" style="stop-color:#FF4500"/>
				<stop  offset="0.1299" style="stop-color:#FB4400"/>
				<stop  offset="0.4383" style="stop-color:#F74300"/>
				<stop  offset="0.4771" style="stop-color:#EE4000"/>
				<stop  offset="0.5416" style="stop-color:#D43900"/>
				<stop  offset="0.6237" style="stop-color:#AB2E00"/>
				<stop  offset="0.7192" style="stop-color:#731F00"/>
				<stop  offset="0.7841" style="stop-color:#481300"/>
			</linearGradient>
			<path class="st42" d="M167.5,124.8c-7.4-2.8-15.2-4.2-23.2-4.2c-8,0-15.8,1.4-23.1,4.2c-6.6,2.5-12.7,6-18.2,10.5
				c-0.9,0.7-1.7,1.4-2.5,2.1l-0.8,0.7l0.6,1l8.7,15l0.9,1.6l1.3-1.3c0.7-0.8,1.5-1.5,2.3-2.2c5-4.5,10.9-8,17.3-9.9
				c4.4-1.4,9-2.1,13.7-2.1c4.7,0,9.3,0.7,13.7,2.1l1.1,0.3l0.6-1l8.5-14.8l0.1-0.1l0.8-1.4L167.5,124.8z"/>
			<linearGradient id="SVGID_31_" gradientUnits="userSpaceOnUse" x1="194.4898" y1="152.408" x2="169.0564" y2="136.5519">
				<stop  offset="0" style="stop-color:#FF4500"/>
				<stop  offset="0.1206" style="stop-color:#FB4400"/>
				<stop  offset="0.407" style="stop-color:#F74300"/>
				<stop  offset="0.4502" style="stop-color:#EF4100"/>
				<stop  offset="0.5181" style="stop-color:#D83B00"/>
				<stop  offset="0.602" style="stop-color:#B43100"/>
				<stop  offset="0.6981" style="stop-color:#822300"/>
				<stop  offset="0.7941" style="stop-color:#481300"/>
			</linearGradient>
			<path class="st43" d="M189.1,137.8c-1.1-1-3.2-2.8-4.7-4c-1.2,2-9.1,15.7-10.2,17.7C182.7,161.2,198.2,146.7,189.1,137.8z"/>
			<g>
				<g>
					<defs>
						<path id="SVGID_32_" d="M215.1,83.9l-30.3,52.4l-0.1,0.1l-8.5,14.7l0,0.1l-9.2,15.9l-0.2,0.3l0,0.1h0l-10.6,18.4l-4,6.9l0,0
							l-0.1,0.1l-7.8,13.5l-11.9-20.5l-20-34.6l-0.1-0.1c5.1-4.6,11.1-8.1,17.8-10.2l0.1,0.1l14,24.3l14-24.3l0-0.1l8.5-14.8
							l0.1-0.1l12.5-21.7C186.9,91.7,200.4,83.9,215.1,83.9L215.1,83.9z"/>
					</defs>
					<clipPath id="SVGID_33_">
						<use xlink:href="#SVGID_32_"  style="overflow:visible;"/>
					</clipPath>
					<g class="st44">
					</g>
				</g>
			</g>
			<linearGradient id="SVGID_34_" gradientUnits="userSpaceOnUse" x1="153.6245" y1="200.1969" x2="109.3577" y2="128.1808">
				<stop  offset="0.2015" style="stop-color:#FF4500"/>
				<stop  offset="0.5109" style="stop-color:#FD4500"/>
				<stop  offset="0.6157" style="stop-color:#F74300"/>
				<stop  offset="0.6412" style="stop-color:#EF4100"/>
				<stop  offset="0.6803" style="stop-color:#DA3B00"/>
				<stop  offset="0.7283" style="stop-color:#B73100"/>
				<stop  offset="0.7832" style="stop-color:#862400"/>
				<stop  offset="0.8432" style="stop-color:#481300"/>
			</linearGradient>
			<path class="st45" d="M156.2,185.9l-4,6.9l0,0l-0.1,0.1l-7.8,13.5l-11.9-20.5l-20-34.6l-0.1-0.1c5.1-4.6,11.1-8.1,17.8-10.2
				l0.1,0.1l14,24.3l0,0L156.2,185.9z"/>
			<line class="st46" x1="66" y1="115.7" x2="84.5" y2="115.7"/>
			<linearGradient id="SVGID_35_" gradientUnits="userSpaceOnUse" x1="50.026" y1="131.0483" x2="100.3204" y2="87.8917">
				<stop  offset="9.866046e-02" style="stop-color:#FF4500"/>
				<stop  offset="0.4363" style="stop-color:#FD4500"/>
				<stop  offset="0.5506" style="stop-color:#F74300"/>
				<stop  offset="0.5928" style="stop-color:#F14100"/>
				<stop  offset="0.6512" style="stop-color:#DF3C00"/>
				<stop  offset="0.719" style="stop-color:#C23400"/>
				<stop  offset="0.7939" style="stop-color:#992900"/>
				<stop  offset="0.8737" style="stop-color:#651B00"/>
				<stop  offset="0.914" style="stop-color:#481300"/>
			</linearGradient>
			<path class="st47" d="M65,66.1l19,32.8V154c0,0-17.4-2.5-19-19.6V66.1z"/>
		</g>
		<text transform="matrix(1 0 0 1 220.5723 140.6592)" class="st2 st3 st48">The VFX </text>
		<text transform="matrix(1 0 0 1 224.9805 202.1846)" class="st2 st5 st49">Company</text>
	</g>
</g>
</svg>
