<?xml version="1.0" encoding="utf-8"?>
<!-- Generator: Adobe Illustrator 24.0.1, SVG Export Plug-In . SVG Version: 6.00 Build 0)  -->
<svg version="1.1" id="Layer_1" xmlns="http://www.w3.org/2000/svg" xmlns:xlink="http://www.w3.org/1999/xlink" x="0px" y="0px"
	 viewBox="0 0 600 600" style="enable-background:new 0 0 600 600;" xml:space="preserve">
<style type="text/css">
	.st0{fill:#003049;}
	.st1{fill:#F6A35B;}
	.st2{fill:#FACFA2;}
	.st3{fill:#FF9700;}
	.st4{fill:#FF4500;}
</style>
<title>offerig</title>
<g>
	<path class="st0" d="M273.3,389.2c-5-1.1-6.4-2.9-6.5-8c0-7.6-0.1-15.3,0-22.9c0.1-2.3-0.8-3.3-2.8-4.3
		c-31.6-14.6-49.5-39.3-53.8-73.9c-0.3-2.2-1-2.7-3-2.7c-24.1,0.1-48.3,0.1-72.4,0c-1.7,0-2.6,0.4-3.4,2.1
		c-4.2,9.8-11.6,15-22.4,14.6c-10.6-0.4-17.4-6.3-21.1-16c-0.2-0.6-0.1-1.4-1-1.6v-10.8c1.4-0.6,1.2-2,1.7-3.1
		c4.1-9,11.1-14.2,21-14.3s17.2,4.7,21.3,13.7c1,2.2,2.1,3,4.5,3c23.7-0.1,47.4-0.1,71.1,0c2.2,0,3.3-0.2,3.6-3
		c1.5-17.2,8.2-33.6,19.2-47c1.9-2.3,2.2-3.5-0.2-5.8c-16.7-16.4-33.2-33-49.7-49.7c-1.8-1.8-3.2-2.1-5.7-1.2
		c-10.2,4-21.8,0.2-27.6-9.1c-6.9-10.7-3.8-24.9,6.9-31.8c7.6-4.9,17.4-4.9,25,0.1c9.3,5.8,13,17.5,8.9,27.7c-1,2.5-0.5,3.8,1.3,5.6
		c16.7,16.5,33.2,33.1,49.7,49.7c2.1,2.2,3.3,2.2,5.6,0.3c32.8-26.5,79.6-26.6,112.5-0.1c2.4,1.9,3.7,2.1,6-0.2
		c16.3-16.5,32.6-32.9,49.1-49.1c2.1-2.1,2.7-3.6,1.5-6.6c-3.8-9.4-0.2-20.3,7.9-26.3c10.3-7.5,24.7-5.2,32.1,5.1
		c7.5,10.3,5.2,24.7-5.1,32.1c-4.1,3-9,4.5-14.1,4.4c-2.5,0-5-0.5-7.3-1.5c-2.5-1.3-4-0.8-6,1.2c-16.5,16.7-33.1,33.2-49.7,49.7
		c-2.2,2.2-2,3.3-0.2,5.5c11,13.5,17.8,30,19.3,47.3c0.2,2.1,0.7,2.8,2.9,2.8c24.3-0.1,48.5-0.1,72.8,0c2.6,0,2.8-1.6,3.5-3.2
		c4.5-9.8,15.1-15.3,25.3-13.2c12.5,2.3,20.8,14.4,18.4,26.9c-1.7,8.9-8.4,16.1-17.3,18.2c-10.8,2.6-21.9-2.9-26.4-13.1
		c-1-2.4-2.1-3.2-4.8-3.2c-23.4,0.1-46.9,0.1-70.3,0c-2.9,0-3.8,0.5-4.3,3.7c-4.5,33.4-21.8,57.7-52.3,72.3
		c-3.3,1.6-4.5,3.2-4.2,6.7c0.4,3.7,0.1,7.5,0.1,11.9c11.2-7.5,22.8-9.3,34.7-3.6s17.9,15.6,19,28.6c22.7-14.8,46.3-2.8,52.7,17.6
		c1.2,0.3,1.6-0.7,2.4-1.2c10.8-7.2,22.2-8.4,33.9-2.7c11.8,5.8,17.8,15.8,18.5,28.9c0.3,5.5,0,11.1,0.1,16.6
		c0.1,4.4-1.9,7.1-6.3,7.8c-4.4-0.8-6.3-3.4-6.2-7.8c0.2-5.1,0.2-10.2,0-15.3c-0.2-8-3.4-14.4-10.6-18.4c-13.4-7.4-29.2,1-30.6,16.4
		c-0.4,3.9-1.3,7-5.5,7.5s-6.3-2-7.2-5.8c0-6.2,0.4-12.4,0-18.5c-0.2-7-4.3-13.4-10.7-16.4c-12.6-7.1-28.6,0.8-30.1,15
		c-0.6,5.9-0.4,11.9-0.4,17.9c0,3.8-0.9,7-5.1,7.9c-3.6,0.8-6-1.2-7.6-5.9c0-14.5,0.3-29,0-43.5c-0.1-7.2-3.6-12.9-10.2-16.4
		c-13.1-8-30.4,1.2-30.8,16.6c-0.3,13.8-0.1,27.7-0.1,41.5c0,4.5-2,7.2-5.4,7.6s-5.9-1.4-7.2-5.9c0-16.2,0.1-32.4,0.1-48.6
		c0-39.6,0-79.3,0-118.9c0-8-2.6-14.6-9.8-18.9c-2.6-2-5.9-3.2-9.2-3.3c-12.8-0.8-22.4,8.4-22.4,21.6c-0.1,36.1-0.1,72.2,0,108.3
		C279.3,386.4,278.3,387.8,273.3,389.2z M344.1,299.6c0.9-1.2,1.7-2.5,2.4-3.8c8.6-17.6,8.1-34.8-1.7-51.8
		c-2.7-4.7-2.6-6.6,0.8-10.3c5-1.7,6.9-1,9.7,3.4c18.5,29.4,10.1,68.6-18.9,88.2c-1.3,0.9-3.2,1.2-3.2,3.4c0,4.2,0,8.4,0,12.8
		c33-14.7,51.2-53.2,42.3-89.1s-43.3-61.3-79.9-58.8c-37.9,2.5-68.8,31.5-72.9,68.3c-3.7,33.7,17.2,71.3,44.1,79.3
		c0-3.1-0.2-6.1,0.1-9.2c0.2-3.2-0.7-5.1-3.6-7c-28.1-19.1-36.7-56.7-19.7-86.1c17-29.4,54-40.9,84.4-26.2c5.3,2.6,6.1,4.1,4.9,9.8
		c-3,3.7-6.3,3.4-10.3,1.6c-20.4-9.6-43.6-5.7-59.5,9.9c-17.9,17.5-21.1,46.7-7.4,65.7c2.6,4.7,6.2,8.8,10.5,11.9
		c0.2-0.3,0.3-0.7,0.4-1c0-12.5,0.1-24.9,0-37.4c-0.1-4.3,0.6-8.6,2-12.6c6-17.3,24.9-26.4,42.2-20.4c13.2,4.6,22.1,17,22.2,31
		c0.2,12.3,0,24.6,0.1,37c0,1.1-0.6,2.5,0.8,3.5C338,308,341.7,304.4,344.1,299.6L344.1,299.6z M444.6,136.9
		c-0.1-5.6-4.7-10.1-10.4-10c0,0,0,0,0,0c-5.6-0.1-10.1,4.4-10.2,9.9c0,0.2,0,0.5,0,0.7c0.2,5.7,4.9,10.1,10.6,10
		C440.3,147.3,444.7,142.6,444.6,136.9z M165.5,126.6c-5.7,0-10.4,4.7-10.4,10.5c0,0.1,0,0.2,0,0.2c0.2,5.8,5.1,10.3,10.9,10
		c5.5-0.2,10-4.7,10-10.3c0.1-5.7-4.5-10.4-10.2-10.5C165.8,126.6,165.6,126.6,165.5,126.6z M120.4,271.4c0-5.7-4.5-10.3-10.1-10.4
		c-5.8-0.1-10.6,4.6-10.7,10.4c0,5.7,4.7,10.4,10.5,10.4c0.1,0,0.1,0,0.2,0c5.6,0,10.1-4.5,10.2-10.1
		C120.4,271.6,120.4,271.5,120.4,271.4z M489.9,281.8c5.7,0,10.4-4.6,10.5-10.3c0-0.1,0-0.1,0-0.2c-0.2-5.6-4.8-10.1-10.4-10.2
		c-5.7,0-10.4,4.6-10.4,10.3c0,0.1,0,0.2,0,0.3c0,5.6,4.5,10.1,10.1,10.2C489.8,281.8,489.8,281.8,489.9,281.8L489.9,281.8z"/>
	<path class="st0" d="M233.4,513c-11.2-11.1-22.6-22.2-33.7-33.5c-18.5-18.8-10.7-49,14.3-55.8c12.2-3.3,23-0.1,32.1,8.6
		c6.8,6.5,13.3,13.3,20.6,20.7v-8.5c0-10.1,0-20.2,0-30.3c0-5.5,1.1-6.9,6.5-8.5c3.7,1,6,3,6,7.3c-0.1,18.2,0,36.3,0,54.5
		c0,3.1-1.2,5.4-4.2,6.4s-5.3-0.2-7.4-2.4c-10-10-20-20-30-30c-6.8-6.7-15.6-8.3-23.7-4.5c-13.1,6.1-16.1,22.8-5.8,33.4
		c10.1,10.3,20.4,20.4,30.7,30.5c1.9,1.6,3.2,3.9,3.6,6.4c-0.5,2.6-2.3,4.3-4.1,5.9L233.4,513z"/>
	<path class="st0" d="M485.5,513c-1.3-1.9-3.5-3.3-3.6-5.9c0-6.3,0.2-12.6,0.1-18.9c-0.1-4.5,1.8-7,6.2-7.7c5,1.4,6.3,3,6.3,8.1
		s-0.2,10.5,0.1,15.7c0.4,3.5-1.2,6.8-4.1,8.7H485.5z"/>
	<path class="st0" d="M300.2,87c9.3,0.1,18.1,5.8,21.1,14.7c1.1,3,2.6,3.9,5.4,4.4c16.4,2.5,32.3,7.5,47.2,14.9
		c2.1,1,3.8,2.3,4.3,4.7c0.6,2.2-0.2,4.5-1.9,6c-2,1.8-5,2.1-7.4,0.7c-6.7-3.3-13.6-6.2-20.7-8.5c-7.9-2.5-16-4.5-24.2-5.8
		c-1.9-0.3-2.6,0.2-3.4,1.8c-4.3,8.4-11.1,13-20.6,13c-9.6,0.1-16.6-4.6-20.9-13.1c-0.8-1.7-1.6-2-3.5-1.8
		c-14.8,2.4-29.1,6.8-42.6,13.2c-1.6,0.8-3.3,1.7-5,1.9c-2.9,0.4-5.6-1.4-6.3-4.3c-1.1-3,0.4-6.4,3.4-7.6
		c8.2-4.1,16.6-7.5,25.4-10.2c7.5-2.4,15.2-4.1,23-5.2c2.5-0.3,3.9-1.2,4.9-3.9C281.7,92.8,290.5,86.8,300.2,87z M300.1,120.5
		c5.8,0,10.5-4.8,10.5-10.6c-0.2-5.8-5.2-10.4-11-10.2c-5.6,0.2-10.1,4.8-10.2,10.4C289.5,116,294.3,120.6,300.1,120.5L300.1,120.5z
		"/>
	<path class="st1" d="M488.2,480.4c-4.4,0.8-6.3,3.3-6.2,7.7c0.1,6.3,0,12.6-0.1,18.9l-10.4-0.2c-0.1-1.7-0.2-3.3-0.2-5
		c0-26.5,0-52.9,0-79.4c7.3,4,10.4,10.4,10.6,18.4c0.2,5.1,0.2,10.2,0,15.3c-0.1,4.5,1.8,7.1,6.2,7.8V480.4z"/>
	<path class="st2" d="M471.4,422.5c0,26.4,0,52.9,0,79.4c0,1.7,0.1,3.3,0.2,5c-1.9,0.1-3.9,0.2-5.8,0.2c-74.4,0-148.8,0-223.2,0
		c-0.4-2.5-1.7-4.7-3.6-6.4c-10.3-10.1-20.7-20.1-30.7-30.5c-10.4-10.6-7.3-27.3,5.8-33.4c8.1-3.7,16.9-2.2,23.7,4.5
		c10.1,9.9,20.1,19.9,30,30c2.1,2.2,4.5,3.4,7.4,2.4s4.2-3.3,4.2-6.4c0-18.2-0.1-36.3,0-54.5c0-4.2-2.3-6.3-6-7.3v-16.4
		c5-1.5,6-2.8,6-8.4c0-36.1,0-72.2,0-108.3c0-13.2,9.6-22.4,22.4-21.6c3.3,0.1,6.5,1.2,9.2,3.3c0,58.8,0,117.7,0,176.5
		c0,6.2,3.1,9.3,9.7,10c1.3,4.5,3.6,6.3,7.2,5.9s5.4-3.1,5.4-7.6c0-13.9-0.2-27.7,0.1-41.5c0.3-15.5,17.6-24.7,30.8-16.6
		c0,16.6,0,33.1,0,49.7c0,6.9,3,9.9,10.2,10.1c1.6,4.7,4,6.6,7.6,5.9c4.2-0.9,5.1-4.1,5.1-7.9c0-6-0.3-12,0.4-17.9
		c1.5-14.3,17.5-22.1,30.1-15c0,7.9,0,15.8,0,23.7c0,7.7,2.9,10.7,10.7,11.3c0.9,3.8,3,6.4,7.2,5.8s5.2-3.7,5.5-7.5
		C442.2,423.5,458,415.1,471.4,422.5z"/>
	<path class="st3" d="M333,222.5c1.1-5.7,0.4-7.2-4.9-9.8c-30.4-14.7-67.4-3.2-84.4,26.2c-17,29.4-8.4,67,19.7,86.1
		c2.9,1.9,3.8,3.9,3.6,7c-0.2,3-0.1,6.1-0.1,9.2c-26.9-7.9-47.8-45.5-44.1-79.3c4.1-36.7,35-65.8,72.9-68.3
		c36.7-2.4,71.1,22.9,79.9,58.8s-9.3,74.4-42.3,89.1c0-4.4,0-8.6,0-12.8c0-2.2,1.9-2.5,3.2-3.4c28.9-19.6,37.4-58.8,18.9-88.2
		c-2.8-4.5-4.7-5.1-9.6-3.4C341.7,229.7,337.4,226,333,222.5z"/>
	<path class="st3" d="M344.1,299.6c-2.5,4.8-6.2,8.4-10.2,11.9c-1.4-1-0.7-2.3-0.8-3.5c-0.1-12.3,0.1-24.6-0.1-37
		c-0.2-18.3-15.1-33-33.4-32.8c-14,0.1-26.4,9-31,22.2c-1.4,4.1-2.1,8.3-2,12.6c0,12.5,0,24.9,0,37.4c-0.1,0.4-0.2,0.7-0.4,1
		c-4.3-3.2-7.9-7.2-10.5-11.9c0-7.2-0.1-14.4,0.1-21.6c0.1-5.1,0.2-10.3,1.2-15.2c4.5-22.8,27.2-38.5,49.6-34.4
		c15.8,2.9,26.7,11.6,33.4,26.1c3.4,7.2,3.2,14.8,3.7,22.3S344.1,292,344.1,299.6z"/>
	<path class="st4" d="M344.1,299.6c0-7.6,0.3-15.3-0.2-22.9s-0.4-15.1-3.7-22.3c-6.8-14.5-17.6-23.2-33.4-26.1
		c-22.4-4.1-45.1,11.6-49.6,34.4c-1,5-1,10.1-1.2,15.2c-0.2,7.2-0.1,14.4-0.1,21.6c-13.8-19-10.5-48.2,7.4-65.7
		c15.9-15.6,39.1-19.5,59.5-9.9c4,1.9,7.4,2.1,10.3-1.6c4.5,3.5,8.7,7.2,12.6,11.2c-3.4,3.7-3.5,5.6-0.8,10.3
		c9.8,17,10.3,34.2,1.7,51.8C345.8,297.1,345,298.4,344.1,299.6z"/>
	<path class="st1" d="M320.6,440.6c-6.6-0.6-9.7-3.8-9.7-10c0-58.8,0-117.6,0-176.5c7.3,4.2,9.8,10.9,9.8,18.9
		c0,39.6,0,79.3,0,118.9C320.7,408.2,320.6,424.4,320.6,440.6z"/>
	<path class="st1" d="M374.2,440.5c-7.1-0.3-10.2-3.2-10.2-10.1c0-16.6,0-33.1,0-49.7c6.6,3.5,10,9.1,10.2,16.4
		C374.5,411.5,374.2,426,374.2,440.5z"/>
	<path class="st3" d="M444.6,136.9c0,5.6-4.4,10.3-10,10.6c-5.7,0.1-10.4-4.3-10.6-10c-0.3-5.5,3.9-10.3,9.5-10.6c0.2,0,0.5,0,0.7,0
		C439.9,126.8,444.5,131.2,444.6,136.9C444.6,136.9,444.6,136.9,444.6,136.9z"/>
	<path class="st3" d="M165.5,126.6c5.7-0.1,10.4,4.4,10.6,10.1c0,0.1,0,0.2,0,0.4c-0.1,5.8-4.9,10.4-10.7,10.3
		c-5.5-0.1-10.1-4.5-10.3-10c-0.2-5.7,4.4-10.5,10.1-10.7C165.4,126.6,165.5,126.6,165.5,126.6z"/>
	<path class="st4" d="M120.4,271.4c0.1,5.6-4.3,10.2-9.9,10.3c-0.1,0-0.1,0-0.2,0c-5.7,0.1-10.5-4.4-10.6-10.2c0-0.1,0-0.1,0-0.2
		c0.1-5.8,4.9-10.5,10.7-10.4C115.9,261.1,120.4,265.8,120.4,271.4z"/>
	<path class="st4" d="M489.9,281.8c-5.6,0.1-10.2-4.3-10.3-9.9c0-0.1,0-0.2,0-0.2c-0.1-5.7,4.4-10.5,10.1-10.6c0.1,0,0.2,0,0.3,0
		c5.7,0.1,10.2,4.6,10.4,10.2c0.1,5.7-4.5,10.5-10.3,10.5C490.1,281.8,490,281.8,489.9,281.8z"/>
	<path class="st1" d="M428.1,440.6c-7.8-0.6-10.6-3.6-10.7-11.3c0-7.9,0-15.8,0-23.7c6.4,3,10.5,9.4,10.7,16.4
		C428.4,428.2,428.1,434.4,428.1,440.6z"/>
	<path class="st4" d="M300.1,120.5c-5.8,0.1-10.6-4.5-10.7-10.3c0.1-5.9,4.9-10.5,10.8-10.4c5.6,0.1,10.2,4.6,10.4,10.2
		C310.6,115.7,305.9,120.4,300.1,120.5z"/>
</g>
</svg>
